<svg xmlns="http://www.w3.org/2000/svg" viewBox="0 0 174.26 146.01"><defs><style>.cls-1{fill:#e6b199;}.cls-2{fill:#dba48e;}.cls-3{fill:#364a5e;}.cls-4{fill:#435c70;}.cls-5{fill:#2b3d50;}.cls-6{fill:#2d3f51;}.cls-7{font-size:21.43px;font-family:AncientGeek, Ancient Geek;}.cls-7,.cls-9{fill:#c8ab2d;}.cls-8{fill:#e8c51e;}.cls-10{fill:#996b6a;}</style></defs><g id="Layer_5" data-name="Layer 5"><path class="cls-1" d="M169.26,134.37l5.68-4.63c.52-.42.71-1.05.42-1.4L141.57,86.85c-.29-.36-.95-.3-1.47.12l-5.68,4.62c-.51.43-.7,1.06-.41,1.41l33.79,41.49C168.09,134.85,168.75,134.79,169.26,134.37Z" transform="translate(-118.5 -70.91)"/><path class="cls-2" d="M137.24,89.3l34.84,42.78-2.49,2c-.7.57-1.58.64-2,.16L134.19,93.22c-.39-.47-.14-1.32.56-1.89Z" transform="translate(-118.5 -70.91)"/><path class="cls-3" d="M119.5,122.14a39.4,39.4,0,0,1,9-35.08l-.48-.59a1,1,0,0,1,0-1.23,30.94,30.94,0,0,1,5.74-5.19c.36-.25.73-.49,1.1-.72a1,1,0,0,1,1.27.21l.49.6a39.16,39.16,0,0,1,25.82-5.94,2.62,2.62,0,0,1,2.2,1.86l.36,1.23a2.62,2.62,0,0,1-2,3.32,56.1,56.1,0,0,0-19.51,8l2.72,3.34a1,1,0,0,1-.23,1.43c-.48.3-1,.62-1.44,1a43.73,43.73,0,0,0-5.29,4.33,1,1,0,0,1-1.42-.09l-2.71-3.33A56,56,0,0,0,119.5,122.14Z" transform="translate(-118.5 -70.91)"/><path class="cls-4" d="M164.84,76.73l.16.56a2.62,2.62,0,0,1-2,3.32,56.28,56.28,0,0,0-43.49,41.53C122.42,79.92,156.77,76.87,164.84,76.73Z" transform="translate(-118.5 -70.91)"/><path class="cls-3" d="M287.25,77.59h0a15.54,15.54,0,0,1,1.84,21.89l-14.23,16.84-23.73-20,14.23-16.85A15.54,15.54,0,0,1,287.25,77.59Z" transform="translate(-118.5 -70.91)"/><path class="cls-4" d="M287.23,77.57a15.55,15.55,0,0,0-21.87,1.86L251.13,96.28l11.84,10Z" transform="translate(-118.5 -70.91)"/><path class="cls-1" d="M243.61,134.21l-5.49-4.85c-.5-.44-.71-1-.46-1.3L266.6,95.22c.25-.28.86-.15,1.36.29l5.49,4.85c.5.44.71,1,.46,1.31L245,134.5C244.72,134.78,244.12,134.65,243.61,134.21Z" transform="translate(-118.5 -70.91)"/><path class="cls-2" d="M270.73,98,240.89,131.8l2.41,2.13c.68.6,1.49.77,1.82.4l28.64-32.49c.33-.38.05-1.16-.62-1.76Z" transform="translate(-118.5 -70.91)"/><path class="cls-1" d="M210,124.7l-7.28-.06c-.67,0-1.21-.37-1.2-.81L202,71.7c0-.44.54-.8,1.21-.79l7.28.06c.66,0,1.2.37,1.2.81l-.43,52.12C211.21,124.35,210.67,124.71,210,124.7Z" transform="translate(-118.5 -70.91)"/><path class="cls-2" d="M206.83,70.94l-.38,46.68,3.2,0c.9,0,1.62-.41,1.63-.93l.36-44.8c0-.52-.71-1-1.61-1Z" transform="translate(-118.5 -70.91)"/><polygon class="cls-3" points="105.16 2.64 71.28 2.33 67.77 4.53 67.61 21.54 71.08 23.8 104.96 24.11 108.48 21.91 108.63 4.9 105.16 2.64"/><polygon class="cls-5" points="105.14 4.87 71.26 4.56 67.75 6.29 67.63 19.77 71.1 21.57 104.98 21.88 108.49 20.15 108.61 6.67 105.14 4.87"/><polygon class="cls-4" points="67.77 4.53 71.27 4.56 71.1 21.57 67.61 21.54 67.77 4.53"/><polygon class="cls-6" points="71.27 4.56 71.29 2.33 67.77 4.53 71.27 4.56"/><polygon class="cls-4" points="108.63 4.9 105.13 4.87 104.98 21.88 108.48 21.91 108.63 4.9"/><polygon class="cls-6" points="105.13 4.87 105.15 2.64 108.63 4.9 105.13 4.87"/><text class="cls-7" transform="translate(81.98 20.15)">e</text></g><g id="Layer_4" data-name="Layer 4"><path class="cls-8" d="M139.29,139.14H273.71l-2-7.66-8.6-5.32-6.58-6.11-13,1.26-12.21-4.23-9.54-5.16-17.53,3-1.41,6.73-15.49,2.5s-5-8.13-5.63-8.6-9.39-2.35-9.39-2.35L162,114.42,156.35,121l-4.7,7h-8.76Z" transform="translate(-118.5 -70.91)"/><polyline class="cls-9" points="42.86 53.57 48.18 48.09 53.97 48.09 58.98 55.6"/><polyline class="cls-9" points="73.6 57.46 80.31 55.6 87.98 56.19 95.64 59.16 85.63 62.61"/><polygon class="cls-9" points="128.08 53.3 138.02 53.3 147.06 60.16 138.53 63.2 128.08 53.3"/><polygon class="cls-9" points="110.5 51.85 123.25 55.71 117.7 62.56 110.5 51.85"/><polygon class="cls-9" points="100.44 44.22 90.11 45.86 88 49.55 104.98 48.09 100.44 44.22"/><path class="cls-3" d="M273.9,141.49H138.78a1.45,1.45,0,0,0-1.4,1.85l19,54.21a11.54,11.54,0,0,0,10.82,8.4h0a11,11,0,1,0,21.91,0h34.74a11,11,0,1,0,21.91,0h0a11.54,11.54,0,0,0,10.8-8.44l18.73-54.18A1.45,1.45,0,0,0,273.9,141.49Zm-95.77,68.68a2,2,0,1,1,2-1.95A2,2,0,0,1,178.13,210.17Zm56.84,0a2,2,0,1,1,1.95-1.95A1.95,1.95,0,0,1,235,210.17Z" transform="translate(-118.5 -70.91)"/></g><g id="Layer_1" data-name="Layer 1"><circle class="cls-4" cx="59.63" cy="135.36" r="7.53"/><path class="cls-10" d="M227.87,176.26h-1.66v-2.55a19.87,19.87,0,0,0-19.87-19.87h0a19.88,19.88,0,0,0-19.88,19.87v2.55h-1.65a.89.89,0,0,0-.89.89v3.24a.89.89,0,0,0,.89.89h43.06a.88.88,0,0,0,.88-.89v-3.24A.88.88,0,0,0,227.87,176.26Z" transform="translate(-118.5 -70.91)"/><path class="cls-4" d="M227.87,182.14H184.81a1.75,1.75,0,0,1-1.75-1.75v-3.24a1.75,1.75,0,0,1,1.75-1.75h.79v-1.69a20.74,20.74,0,0,1,41.48,0v1.69h.79a1.76,1.76,0,0,1,1.75,1.75v3.24A1.75,1.75,0,0,1,227.87,182.14Zm-43.06-5a0,0,0,0,0,0,0v3.24a0,0,0,0,0,0,0h43.06a0,0,0,0,0,0,0v-3.24a0,0,0,0,0,0,0h-1.66a.86.86,0,0,1-.86-.87v-2.55a19,19,0,0,0-38,0v2.55a.87.87,0,0,1-.87.87Z" transform="translate(-118.5 -70.91)"/><circle class="cls-9" cx="87.84" cy="94.45" r="7.57"/><path class="cls-4" d="M206.34,173.8a8.44,8.44,0,1,1,8.43-8.44A8.45,8.45,0,0,1,206.34,173.8Zm0-15.15a6.71,6.71,0,1,0,6.7,6.71A6.72,6.72,0,0,0,206.34,158.65Z" transform="translate(-118.5 -70.91)"/><circle class="cls-8" cx="87.84" cy="94.45" r="3.4"/><path class="cls-4" d="M206.34,169.62a4.27,4.27,0,1,1,4.26-4.26A4.27,4.27,0,0,1,206.34,169.62Zm0-6.8a2.54,2.54,0,1,0,2.53,2.54A2.54,2.54,0,0,0,206.34,162.82Z" transform="translate(-118.5 -70.91)"/><rect class="cls-4" x="67.97" y="104.49" width="11.47" height="1.73"/><rect class="cls-4" x="102.52" y="104.49" width="5.2" height="1.73"/><circle class="cls-4" cx="116.47" cy="135.36" r="7.53"/></g></svg>